# xmcd
#
# Track frame offsets:
#	150
#	12479
#	27990
#	41138
#	54184
#	68170
#	82363
#	97475
#	111408
#	125660
#	141255
#	161898
#	178608
#	197232
#	213670
#
# Disc length: 3067 seconds
#
# Revision: 1
# Processed by: cddbd v1.5.1PL2 Copyright (c) Steve Scherf et al.
# Submitted via: audiograbber 1.83.01
#
DISCID=f00bf90f
DTITLE=ChartBuster Hot Country Hits Vlo 78 - Cb60078
DYEAR=1900
DGENRE=Karaoke
TTITLE0=Don Williams - Some Broken Hearts Never Mend
TTITLE1=Glen Campbell - Southern Nights
TTITLE2=Dolly Parton - Me And Little Andy
TTITLE3=Waylon Jennings - Are You Sure Hank Done It This Way
TTITLE4=Lefty Frizzell - I Overlooked An Orchid
TTITLE5=Anne Murray - Put Your Hand In The Hand
TTITLE6=Carter Family - Wildwood Flower
TTITLE7=Mac Davis - One Hell Of A Woman
TTITLE8=Tammy Wynette - Womanhood
TTITLE9=Merle Haggard - Someday When Things Are Good
TTITLE10=Eddie Rabbitt - Suspicions
TTITLE11=Emmylou Harris - Save The Last Dance For Me
TTITLE12=Kenny Rogers - You Decorated My Life
TTITLE13=Mac Davis - It's Hard To Be Humble
TTITLE14=Anne Murray - You Needed Me
EXTD=
EXTT0=
EXTT1=
EXTT2=
EXTT3=
EXTT4=
EXTT5=
EXTT6=
EXTT7=
EXTT8=
EXTT9=
EXTT10=
EXTT11=
EXTT12=
EXTT13=
EXTT14=
PLAYORDER=
